<svg width="91" height="100" viewBox="0 0 69 78" fill="none" xmlns="http://www.w3.org/2000/svg">
<path d="M25.5383 0.0482661C25.4506 0.0721895 24.9243 0.223705 24.3661 0.391169C17.9546 2.31302 12.2129 6.19659 8.07419 11.4039C7.48408 12.1456 6.35968 13.7325 6.35968 13.8202C6.35968 13.8441 6.66271 13.868 7.02954 13.868H7.69939L8.07419 13.3338C9.09493 11.8744 10.8094 9.9446 12.2448 8.62881C15.2512 5.87761 18.6962 3.74045 22.4681 2.27315C23.5208 1.86645 25.315 1.29229 25.953 1.14874C26.7026 0.989255 26.6866 -0.0235043 25.945 0.000419168C25.8094 0.00839365 25.626 0.0323171 25.5383 0.0482661Z" fill="black"/>
<path d="M41.4474 0.151937C41.2321 0.367248 41.2401 0.718125 41.4713 0.925461C41.567 1.02116 41.9976 1.18862 42.4283 1.30026C48.1779 2.85529 53.7919 6.35608 57.7393 10.8377C58.7361 11.9781 60.012 13.6448 60.7058 14.7293L61.1842 15.4709L61.3996 15.2078C61.5192 15.0642 61.6787 14.833 61.7504 14.6894L61.894 14.4342L61.4235 13.7325C57.1252 7.24923 50.6739 2.48049 43.3055 0.343324C41.9338 -0.0474255 41.6787 -0.0793234 41.4474 0.151937Z" fill="black"/>
<path d="M33.3054 2.70377C32.4681 2.85529 31.9578 3.29389 31.9578 3.86007C31.9578 4.25082 32.1491 4.54588 32.516 4.69739C32.6994 4.77714 32.7552 4.84891 32.7552 5.02435C32.7552 5.27156 32.7074 5.29548 31.9976 5.37523C31.1683 5.46295 29.7169 5.8218 28.8637 6.14078C25.5064 7.40074 22.6276 9.96853 21.0487 13.1105C20.6898 13.8441 20.2592 14.9446 20.1236 15.4789L20.0758 15.7022H33.8716C42.4601 15.7022 47.6675 15.6703 47.6675 15.6304C47.6675 15.4231 47.1252 13.9797 46.7903 13.27C44.7329 8.97969 40.2592 5.81382 35.6021 5.3513C35.0359 5.29548 35.0279 5.29548 35.004 5.04827C34.9801 4.83296 35.012 4.78511 35.307 4.65752C35.9051 4.38639 36.0327 3.72451 35.5782 3.25401C35.1475 2.79947 34.1268 2.55226 33.3054 2.70377ZM31.7983 6.51558C31.7983 6.55545 31.6627 6.62722 31.4873 6.67507C30.9211 6.8505 29.2943 7.6958 28.433 8.27794C26.6148 9.49006 24.7807 11.5714 23.6962 13.6368C23.3852 14.2349 23.1778 14.3625 22.819 14.195C22.5479 14.0754 22.5718 13.892 22.9546 13.1264C23.752 11.5475 24.9083 10.0961 26.3357 8.89995C27.5877 7.85529 29.2464 7.02594 30.8812 6.65114C31.8222 6.42786 31.7983 6.43583 31.7983 6.51558Z" fill="black"/>
<path d="M3.44898 15.7739C3.35329 15.9334 3.23367 19.0196 3.21772 21.5235L3.20975 24.1153L3.42506 24.5778C3.56062 24.8649 3.86365 25.2716 4.19858 25.6145C5.02793 26.4837 5.11565 26.691 5.14755 27.9829C5.17944 29.0993 5.04388 32.3928 4.7568 37.7755C4.58933 40.758 4.58933 40.9175 4.7249 41.2604C5.08375 42.2173 6.34372 42.2891 6.87003 41.38C7.10129 40.9893 7.10129 40.9893 6.55105 33.1264C6.43144 31.4996 6.33574 29.4582 6.32777 28.581C6.31979 26.6751 6.35169 26.5634 7.23686 25.6304C7.57179 25.2795 7.89077 24.8409 8.01836 24.5698C8.2257 24.1232 8.23367 24.0834 8.23367 22.5602C8.23367 20.5905 8.03431 16.0291 7.93861 15.8377C7.85887 15.6783 7.69141 15.6623 7.57179 15.7979C7.46812 15.9334 7.4123 17.1137 7.3485 20.3832C7.29268 23.2141 7.26078 23.3896 6.92586 23.0865C6.79826 22.9669 6.78231 22.7038 6.72649 19.7054C6.6946 17.9191 6.63877 16.3003 6.61485 16.1009C6.567 15.7899 6.53511 15.7421 6.35967 15.7421C6.20018 15.7421 6.15233 15.7899 6.11246 16.0212C6.08056 16.1727 6.02474 17.8154 5.99284 19.6735C5.93702 23.1344 5.92107 23.27 5.61804 23.1503C5.45058 23.0865 5.4107 22.7835 5.4107 21.3242C5.40273 18.9717 5.30704 15.9813 5.22729 15.8377C5.17944 15.75 5.08375 15.7022 4.98008 15.7181C4.82857 15.7421 4.79667 15.8058 4.7568 16.2604C4.7249 16.5475 4.67705 18.1902 4.64515 19.9047C4.59731 22.4566 4.56541 23.0546 4.46972 23.1344C4.382 23.2062 4.33415 23.1982 4.24643 23.1105C4.15074 23.0148 4.11086 22.3369 4.03909 19.5299C3.99125 17.624 3.91948 15.9813 3.8796 15.8776C3.80783 15.7022 3.5367 15.6384 3.44898 15.7739Z" fill="black"/>
<path d="M63.4888 15.9414C62.181 16.683 60.8014 20.0243 60.4187 23.3497C60.299 24.4502 60.3628 26.8983 60.5383 27.5283C60.7456 28.2779 61.0327 28.8042 61.559 29.3784C62.1172 29.9845 62.197 30.2397 62.1332 31.2524C61.7982 36.691 61.6228 39.9047 61.6228 40.5666C61.6228 41.2843 61.8062 41.699 62.2129 41.8904C62.8509 42.1934 63.5128 41.9542 63.7919 41.3322C63.9514 40.9653 63.9514 40.9095 63.8636 38.1583C63.6324 31.1328 63.6244 30.6065 63.7759 29.3066C63.9274 28.0467 64.0949 26.3082 64.3022 23.8361C64.374 23.0227 64.4458 20.9334 64.4697 19.1631C64.5096 16.2365 64.5016 15.9653 64.382 15.8377C64.1826 15.6464 63.9514 15.6703 63.4888 15.9414Z" fill="black"/>
<path d="M17.1811 16.7229C16.8701 17.0578 17.0854 17.5443 17.6436 17.7915C17.9626 17.9271 49.1348 17.9908 49.8047 17.8473C50.3868 17.7277 50.6978 17.4486 50.6978 17.0499C50.6978 16.8266 50.6579 16.7229 50.5463 16.6591C50.4426 16.6033 45.0997 16.5794 33.8477 16.5794C17.9307 16.5794 17.3007 16.5873 17.1811 16.7229Z" fill="black"/>
<path d="M11.6468 27.9669C11.2321 28.2939 11.2321 28.876 11.6468 29.2269C12.1571 29.6575 12.8988 29.2907 12.8988 28.6129C12.8988 27.9749 12.1332 27.5841 11.6468 27.9669Z" fill="black"/>
<path d="M55.0758 28.0546C54.693 28.4454 54.7728 29.0515 55.2433 29.2987C55.8812 29.6336 56.5431 29.1392 56.4075 28.4294C56.2959 27.8234 55.5224 27.6081 55.0758 28.0546Z" fill="black"/>
<path d="M67.5638 33.9478C66.3915 34.3465 65.618 35.0164 65.0917 36.077C64.8206 36.6113 64.5175 37.7596 64.6132 37.8553C64.7089 37.951 65.5702 37.7038 66.1603 37.4167C67.3884 36.8106 68.4968 35.3593 68.6164 34.1791L68.6643 33.7245H68.433C68.3054 33.7245 67.9147 33.8282 67.5638 33.9478Z" fill="black"/>
<path d="M0.0199636 34.1791C0.322994 35.9733 1.59094 37.3609 3.39317 37.8633L3.96733 38.0228V37.6798C3.96733 36.8904 3.44899 35.758 2.79508 35.1121C2.15712 34.4901 0.865259 33.884 0.15553 33.884C-0.0119343 33.884 -0.0199088 33.9079 0.0199636 34.1791Z" fill="black"/>
<path d="M57.0774 34.6575C57.0854 35.4869 57.6037 36.7947 58.2018 37.4964C58.6723 38.0387 59.4458 38.565 60.1874 38.8361C60.5383 38.9637 60.8493 39.0674 60.8812 39.0674C60.9051 39.0674 60.9051 38.7723 60.8812 38.4055C60.7457 36.5873 59.6611 35.1759 57.8988 34.5538C57.1412 34.2907 57.0774 34.2987 57.0774 34.6575ZM59.5256 37.01C60.028 37.5443 60.4825 38.2381 60.3868 38.3338C60.323 38.3975 59.9323 37.9749 59.4139 37.2731C58.7361 36.3641 58.7839 36.2444 59.5256 37.01Z" fill="black"/>
<path d="M10.9849 35.0722C10.2512 35.3114 9.73288 35.6145 9.15074 36.1647C8.53671 36.7468 8.13798 37.4406 7.9147 38.3098C7.81103 38.7325 7.74723 39.7054 7.82698 39.7054C7.84293 39.7054 8.10609 39.6176 8.41709 39.514C10.1396 38.9318 11.5351 37.2014 11.6787 35.4629C11.7345 34.833 11.7265 34.833 10.9849 35.0722ZM9.89237 37.018C9.48567 37.6958 8.47291 38.8999 8.39317 38.8122C8.24963 38.6767 9.58934 36.9143 9.83655 36.9143C9.91629 36.9143 9.93224 36.9542 9.89237 37.018Z" fill="black"/>
<path d="M22.2369 41.7787C21.5271 41.9302 20.8573 42.4885 20.5224 43.2062C20.3868 43.5092 20.3549 43.7245 20.3549 44.4502C20.3549 45.1918 20.3868 45.3912 20.5383 45.7261C20.7696 46.2285 21.2002 46.683 21.7106 46.9462C22.2608 47.2253 23.1938 47.2412 23.8078 46.9701C24.2225 46.7787 24.701 46.3322 24.701 46.1248C24.701 46.0212 24.1428 45.5267 24.0232 45.5267C23.9913 45.5267 23.8397 45.6304 23.6962 45.766C23.3613 46.0531 22.9227 46.1806 22.5399 46.0929C21.7903 45.9175 21.3836 45.2556 21.4474 44.3066C21.5112 43.3975 21.9099 42.9031 22.6356 42.8314C23.138 42.7835 23.3373 42.8393 23.6643 43.1344C23.8078 43.262 23.9673 43.3736 24.0152 43.3736C24.1188 43.3736 24.701 42.8314 24.701 42.7357C24.701 42.5762 24.2624 42.1695 23.8796 41.9861C23.4091 41.7548 22.7552 41.6751 22.2369 41.7787Z" fill="black"/>
<path d="M32.1731 41.7787C31.6707 41.9063 31.2799 42.1535 30.8972 42.5762C30.0598 43.5012 29.9881 45.0562 30.7297 46.1408C31.0726 46.6432 31.4952 46.9302 32.1332 47.0897C33.2895 47.3928 34.4059 46.8744 34.9482 45.7899C35.1635 45.3593 35.1874 45.2636 35.1874 44.4502C35.1874 43.3976 35.0519 43.0307 34.4458 42.4247C33.8876 41.8665 32.9227 41.5953 32.1731 41.7787ZM33.3055 42.935C33.8637 43.2221 34.1587 43.876 34.087 44.6655C33.9673 46.0371 32.6276 46.6272 31.7823 45.6862C31.0806 44.8968 31.2241 43.4773 32.0694 42.9669C32.3724 42.7835 32.9865 42.7676 33.3055 42.935Z" fill="black"/>
<path d="M10.9211 41.8824C10.8493 41.9701 10.8254 42.624 10.8413 44.5379L10.8653 47.0818L11.3278 47.1057C11.6468 47.1216 11.7983 47.0977 11.8222 47.0259C11.8381 46.9701 11.87 46.5794 11.878 46.1647L11.9019 45.4071L12.4602 45.3832C13.3932 45.3513 13.6643 45.2875 14.0072 45.0483C14.4697 44.7133 14.685 44.2588 14.6771 43.6129C14.6771 42.8074 14.3342 42.2652 13.6563 41.9701C13.2098 41.7708 11.0646 41.707 10.9211 41.8824ZM13.3453 43.0706C13.6404 43.3657 13.6404 43.8601 13.3453 44.1551C13.1539 44.3545 13.0822 44.3704 12.516 44.3704H11.9019L11.878 43.7006C11.8621 43.3338 11.878 42.9749 11.9019 42.9111C11.9338 42.8234 12.0774 42.8074 12.5399 42.8314C13.0582 42.8553 13.1619 42.8872 13.3453 43.0706Z" fill="black"/>
<path d="M15.945 41.8744C15.8732 41.9462 15.8493 42.64 15.8493 44.498C15.8493 46.7309 15.8653 47.0339 15.9769 47.0738C16.2241 47.1695 19.2385 47.1296 19.3421 47.0259C19.4697 46.8983 19.4697 46.3082 19.3421 46.1806C19.2783 46.1168 18.8876 46.0849 18.1061 46.0849H16.9657V45.4869V44.8968L17.9466 44.8728L18.9195 44.8489V44.4103V43.9717L17.9466 43.9478L16.9657 43.9239V43.3736V42.8234L18.146 42.7995L19.3182 42.7755L19.3421 42.3928C19.382 41.7708 19.3979 41.7787 17.6117 41.7787C16.4952 41.7787 16.0168 41.8027 15.945 41.8744Z" fill="black"/>
<path d="M25.5862 41.8904C25.5303 41.9542 25.4984 42.1775 25.5144 42.3928L25.5383 42.7755L26.256 42.8154L26.9737 42.8553L27.0136 44.9685L27.0535 47.0818L27.3645 47.1057C27.5399 47.1216 27.7632 47.1137 27.8589 47.0897L28.0503 47.0419L28.0662 44.9446L28.0901 42.8553L28.8079 42.8154L29.5256 42.7755L29.5495 42.3928C29.5893 41.7628 29.6372 41.7787 27.5319 41.7787C26.0248 41.7787 25.6579 41.8027 25.5862 41.8904Z" fill="black"/>
<path d="M36.567 41.8585C36.4314 41.9382 36.4235 42.1535 36.4235 44.4342C36.4235 46.2684 36.4474 46.9542 36.5192 47.0259C36.6467 47.1535 37.3405 47.1456 37.4442 47.018C37.492 46.9621 37.5479 46.5714 37.5558 46.1567L37.5798 45.4071L38.3772 45.3672C39.2624 45.3194 39.5255 45.2157 39.9163 44.7771C40.4426 44.179 40.4346 43.0467 39.9083 42.4406C39.4697 41.9462 39.0949 41.8266 37.819 41.8027C37.1172 41.7867 36.6547 41.8027 36.567 41.8585ZM38.7281 42.9031C38.9912 42.9988 39.2145 43.3178 39.2145 43.6129C39.2145 43.9079 38.9912 44.2269 38.7281 44.3226C38.5845 44.3704 38.2656 44.4103 38.0104 44.4103H37.5399V43.6129V42.8154H38.0104C38.2656 42.8154 38.5845 42.8553 38.7281 42.9031Z" fill="black"/>
<path d="M42.5878 41.8744C42.5399 41.9302 42.3884 42.2811 42.2448 42.6559C41.0885 45.7022 40.65 46.9223 40.6818 47.018C40.7137 47.0977 40.8573 47.1216 41.2241 47.1057L41.7265 47.0818L41.894 46.6033L42.0614 46.1248L43.0662 46.1009L44.063 46.077L44.1986 46.4996C44.39 47.0818 44.4378 47.1216 44.9163 47.1216C45.5622 47.1216 45.5782 47.0578 45.1635 45.9574C44.1747 43.3178 43.6085 41.9143 43.5128 41.8505C43.3453 41.7468 42.6755 41.7628 42.5878 41.8744ZM43.3932 44.179C43.5527 44.6176 43.6803 45.0164 43.6803 45.0562C43.6803 45.144 42.4841 45.1519 42.4841 45.0642C42.4761 44.9446 43.0024 43.3816 43.0503 43.3736C43.0822 43.3736 43.2337 43.7325 43.3932 44.179Z" fill="black"/>
<path d="M46.567 41.8425C46.4952 41.8983 46.4713 42.4805 46.4873 44.498L46.5112 47.0818H46.9897H47.4681L47.508 46.0052L47.5479 44.9286H48.5048H49.4617L49.4857 45.9175C49.4936 46.4837 49.5415 46.9542 49.5973 47.018C49.701 47.1456 50.3948 47.1535 50.5224 47.0259C50.6579 46.8904 50.6579 42.01 50.5224 41.8744C50.4665 41.8186 50.2592 41.7787 50.0598 41.7787C49.8605 41.7787 49.6531 41.8186 49.5973 41.8744C49.5335 41.9382 49.5016 42.2971 49.5016 42.951V43.9398L48.5287 43.9159L47.5479 43.892L47.5239 42.8952C47.508 42.2253 47.4681 41.8824 47.4043 41.8425C47.2767 41.7628 46.6946 41.7628 46.567 41.8425Z" fill="black"/>
<path d="M52.0853 41.8345C51.9737 41.9063 51.894 46.8585 51.9976 47.018C52.0455 47.0897 52.3326 47.1216 52.9625 47.1216C54.5893 47.1216 55.1794 46.8983 55.5303 46.1408C55.9928 45.144 55.5861 44.0036 54.6691 43.7006C54.5255 43.6527 54.1029 43.6049 53.7281 43.5969L53.0503 43.573L53.0104 42.6958L52.9705 41.8186L52.5718 41.7947C52.3565 41.7867 52.1332 41.8026 52.0853 41.8345ZM54.4538 44.8011C54.6053 44.9845 54.6531 45.4629 54.5574 45.7261C54.4697 45.9494 54.079 46.0849 53.5287 46.0849H53.0104V45.3194V44.5538L53.6563 44.5857C54.2145 44.6097 54.3182 44.6336 54.4538 44.8011Z" fill="black"/>
<path d="M56.2959 41.8425C56.2241 41.8983 56.2002 42.4805 56.2161 44.498L56.2401 47.0818L56.5511 47.1057C56.7265 47.1216 56.9498 47.1137 57.0535 47.0897L57.2369 47.0419V44.4582C57.2369 41.5953 57.2768 41.7787 56.6946 41.7787C56.5351 41.7787 56.3517 41.8106 56.2959 41.8425Z" fill="black"/>
<path d="M1.60689 42.3768C1.37563 42.6081 1.3836 42.6479 1.75043 44.3704C2.85888 49.5618 5.35489 54.6416 8.70418 58.5411C9.28631 59.2189 9.54947 59.3226 9.86845 59.0036C10.1555 58.7165 10.0758 58.4374 9.5415 57.7915C6.83815 54.5618 4.80465 50.8457 3.54469 46.7867C3.20976 45.7341 2.70736 43.6288 2.5718 42.7516C2.48408 42.1934 1.98966 41.994 1.60689 42.3768Z" fill="black"/>
<path d="M65.4984 42.3609C65.3788 42.4885 65.2991 42.6878 65.2592 42.9749C65.1475 43.8441 64.6292 45.9175 64.1747 47.2811C62.9306 51.0531 61.1922 54.2508 58.7201 57.313C57.7712 58.4932 57.6755 58.7325 58.0263 59.0196C58.4729 59.3704 58.7121 59.187 60.0279 57.4885C62.3645 54.4741 64.0949 51.2046 65.307 47.4805C65.8094 45.9255 66.4075 43.3657 66.4075 42.7436C66.4075 42.2094 65.8812 41.9781 65.4984 42.3609Z" fill="black"/>
<path d="M33.9514 51.4199C33.0423 51.7149 32.4681 52.313 32.189 53.246C32.0933 53.581 32.0854 53.5889 31.7664 53.565L31.4394 53.5411L31.3996 52.5044L31.3597 51.4677H30.8413H30.323V54.1392V56.8106H30.8413H31.3597L31.3996 55.7341L31.4394 54.6575L31.7664 54.6336L32.0933 54.6097L32.189 54.9924C32.3804 55.766 32.8988 56.388 33.5925 56.707C34.1587 56.9621 35.0997 56.9542 35.6898 56.699C36.3039 56.4199 36.8302 55.8138 37.0614 55.0961C37.516 53.6767 36.9578 52.1775 35.7456 51.5873C35.331 51.388 34.3342 51.2923 33.9514 51.4199ZM35.2273 52.5842C35.7377 52.8473 36.0248 53.4135 36.0248 54.1392C36.0248 55.1519 35.4745 55.8138 34.6292 55.8138C33.9913 55.8138 33.5048 55.4151 33.3214 54.7373C32.9147 53.246 34.0391 51.9781 35.2273 52.5842Z" fill="black"/>
<path d="M18.4968 51.5236C18.3613 51.6591 18.3613 56.6192 18.4968 56.7548C18.6165 56.8744 20.7058 56.8824 21.264 56.7628C21.7425 56.6591 22.2528 56.3082 22.4283 55.9653C22.6356 55.5746 22.6755 54.9207 22.516 54.514C22.2369 53.7724 21.7026 53.4932 20.4586 53.4374L19.5973 53.3976V52.935V52.4645L20.8972 52.4486L22.189 52.4247V51.9462V51.4677L20.3948 51.4438C19.063 51.4279 18.5686 51.4518 18.4968 51.5236ZM21.1045 54.5778C21.3517 54.7054 21.4315 54.8409 21.4315 55.144C21.4315 55.6384 21.1045 55.8138 20.1874 55.8138H19.5973V55.136V54.4582H20.2353C20.65 54.4582 20.961 54.498 21.1045 54.5778Z" fill="black"/>
<path d="M24.9562 51.5634C24.9163 51.6432 24.8605 52.3369 24.8366 53.1025C24.7648 55.0961 24.5734 55.7341 24.0551 55.7341C23.7839 55.7341 23.7441 55.7979 23.6962 56.2604C23.6484 56.7309 23.752 56.8505 24.1906 56.8505C25.3629 56.8505 25.8334 55.9653 25.953 53.5331L26.0008 52.4645H26.7504H27.4921V54.6176V56.7708L27.6755 56.8106C27.7791 56.8425 28.0184 56.8505 28.2177 56.8346L28.5686 56.8106V54.1392V51.4677L26.7983 51.4438C25.1715 51.4279 25.02 51.4358 24.9562 51.5634Z" fill="black"/>
<path d="M39.3421 51.5236C39.3182 51.5794 39.2624 52.2413 39.2145 52.9988C39.0869 54.9606 38.8557 55.7341 38.3692 55.8138L38.138 55.8537V56.8505V57.8473L38.6085 57.8712C39.1667 57.9031 39.2145 57.8553 39.2145 57.2652V56.8505H40.8493H42.4841V57.2652C42.4841 57.8553 42.5319 57.9031 43.0901 57.8712L43.5606 57.8473V56.8505V55.8537L43.2815 55.8138L43.0024 55.7739L42.9625 53.6208L42.9227 51.4677L41.1443 51.4438C39.7648 51.4279 39.366 51.4438 39.3421 51.5236ZM41.7664 54.1392V55.8138H40.8014C39.9083 55.8138 39.8365 55.8058 39.8924 55.6703C40.0837 55.2476 40.2592 54.3306 40.2991 53.5491C40.323 53.0626 40.3549 52.6161 40.3788 52.5602C40.3947 52.4964 40.6101 52.4645 41.0885 52.4645H41.7664V54.1392Z" fill="black"/>
<path d="M46.6069 51.4837C46.4075 51.8027 44.5574 56.699 44.6053 56.7787C44.6691 56.8904 45.642 56.8664 45.7297 56.7468C45.7775 56.699 45.8732 56.4598 45.953 56.2285L46.1045 55.8138H47.1252H48.1539L48.3054 56.1886C48.5686 56.8266 48.5527 56.8106 49.1109 56.8106C49.5574 56.8106 49.6212 56.7947 49.6452 56.6511C49.6531 56.5634 49.2225 55.3593 48.6802 53.9797L47.6994 51.4677L47.1731 51.4438C46.878 51.4279 46.6228 51.4518 46.6069 51.4837ZM47.4601 53.8042C47.6196 54.2349 47.7472 54.6336 47.7472 54.6814C47.7472 54.7452 47.5479 54.7771 47.1172 54.7771H46.4793L46.7105 54.1153C46.9897 53.2939 47.0933 53.0227 47.1412 53.0227C47.1571 53.0227 47.3007 53.3736 47.4601 53.8042Z" fill="black"/>
<path d="M18.1858 68.2301C18.0184 68.2939 18.0582 68.7165 18.2337 68.8122C18.3373 68.8601 20.2273 68.892 23.8158 68.892C28.6324 68.892 29.2464 68.876 29.3581 68.7644C29.5096 68.6208 29.5255 68.4055 29.39 68.27C29.3182 68.1982 27.9705 68.1743 23.7839 68.1822C20.7616 68.1822 18.2337 68.2062 18.1858 68.2301Z" fill="black"/>
<path d="M38.5287 68.2381C38.3533 68.3577 38.3373 68.573 38.4968 68.7325C38.6563 68.892 38.7839 68.892 43.9912 68.892C47.3565 68.892 49.4059 68.8601 49.5415 68.8122C49.7169 68.7484 49.7488 68.6926 49.7249 68.4773L49.701 68.2141L44.1587 68.1982C41.1125 68.1822 38.5766 68.2062 38.5287 68.2381Z" fill="black"/>
<path d="M26.0646 72.5921C26.0008 72.6639 25.9769 73.3896 25.9929 75.0802L26.0168 77.4645H26.4155H26.8142L26.8381 76.9063C26.8621 76.4119 26.886 76.3322 27.0694 76.1966C27.2767 76.0451 27.2767 76.0451 27.4442 76.2444C27.5399 76.3561 27.7791 76.683 27.9865 76.9781L28.3692 77.5044H28.76C28.9753 77.5044 29.1747 77.4725 29.1986 77.4326C29.2225 77.3928 28.9434 76.9462 28.5686 76.4358C28.1938 75.9334 27.8908 75.4948 27.8908 75.4629C27.8908 75.431 28.1619 75.128 28.4889 74.7851C28.8158 74.4422 29.087 74.1232 29.087 74.0754C29.087 74.0355 28.8956 73.9956 28.6643 73.9956H28.2417L27.6037 74.7054C27.2608 75.0961 26.9498 75.4231 26.9179 75.4231C26.878 75.431 26.8541 74.809 26.8541 74.0515C26.8541 73.0865 26.8222 72.64 26.7584 72.5762C26.6308 72.4486 26.1763 72.4566 26.0646 72.5921Z" fill="black"/>
<path d="M35.2273 72.64C35.1396 72.7277 35.0678 72.8712 35.0678 72.959C35.0678 73.1743 35.3469 73.4374 35.5702 73.4374C35.9689 73.4374 36.1763 72.8792 35.8812 72.6161C35.6818 72.4326 35.4187 72.4486 35.2273 72.64Z" fill="black"/>
<path d="M22.6834 74.0355C22.508 74.0913 22.2927 74.2189 22.189 74.3146L22.0136 74.4821L21.9578 74.2349C21.9179 73.9956 21.894 73.9877 21.575 74.0116L21.2321 74.0355V75.75V77.4645H21.5909H21.9498L21.9897 76.2843L22.0295 75.0961L22.2927 74.8649C22.5957 74.5857 22.9944 74.5538 23.2736 74.7851C23.457 74.9286 23.4649 74.9924 23.5048 76.2046L23.5447 77.4645L23.8477 77.4885C24.382 77.5363 24.398 77.4805 24.3661 76.0291C24.3342 74.5379 24.2544 74.3146 23.7201 74.0674C23.3294 73.892 23.0981 73.884 22.6834 74.0355Z" fill="black"/>
<path d="M31.5192 73.9478C31.4793 73.9637 31.3517 74.0036 31.2401 74.0275C31.1284 74.0515 30.9211 74.1472 30.7776 74.2349L30.5144 74.3944L30.6579 74.6336C30.8174 74.9127 30.8414 74.9127 31.1763 74.7452C31.3118 74.6735 31.5989 74.6097 31.8142 74.6097C32.2688 74.6017 32.508 74.7851 32.5399 75.1599L32.5559 75.3912L31.8382 75.431C30.7536 75.5028 30.339 75.7979 30.339 76.5076C30.339 77.1535 30.7457 77.5283 31.4713 77.5363C31.8461 77.5443 31.9977 77.5044 32.2608 77.321C32.6436 77.0738 32.6755 77.0658 32.6755 77.2253C32.6755 77.4725 33.3374 77.6081 33.5367 77.4087C33.6643 77.2811 33.6563 76.8904 33.5208 76.8425C33.4331 76.8106 33.4012 76.5554 33.3852 75.758C33.3533 74.6176 33.2815 74.4263 32.7791 74.1392C32.5559 74.0036 31.7026 73.876 31.5192 73.9478ZM32.5957 76.1647C32.5878 76.7628 31.8222 77.1615 31.3358 76.8186C31.0248 76.6033 31.1444 76.1168 31.5591 75.9653C31.6229 75.9414 31.886 75.9175 32.1412 75.9175L32.5957 75.9095V76.1647Z" fill="black"/>
<path d="M38.4251 73.9956C38.0263 74.0913 37.7552 74.3306 37.6276 74.6894C37.4043 75.3114 37.6755 75.7022 38.5447 75.9893C39.382 76.2604 39.5973 76.5555 39.1747 76.8346C38.9275 76.994 38.433 76.9382 38.0503 76.699L37.7951 76.5395L37.6196 76.7867C37.4841 76.9781 37.4681 77.0578 37.5399 77.1456C37.7074 77.3529 38.3613 77.5443 38.8557 77.5363C39.6531 77.5283 40.1715 77.1296 40.1715 76.5315C40.1715 75.9334 39.9322 75.6942 39.0949 75.431C38.3374 75.1918 38.138 74.9366 38.5128 74.6814C38.744 74.522 38.9275 74.522 39.398 74.6894L39.7887 74.825L39.9402 74.6336C40.1316 74.3784 40.1077 74.3066 39.7648 74.1392C39.4299 73.9717 38.7839 73.8999 38.4251 73.9956Z" fill="black"/>
<path d="M42.6117 74.0116C42.1651 74.1312 41.6547 74.6655 41.5431 75.128C41.1603 76.6591 42.1651 77.8074 43.6244 77.5044C44.0869 77.4087 44.5574 77.1615 44.5574 77.01C44.5574 76.9621 44.4857 76.8345 44.39 76.7389C44.2225 76.5634 44.2225 76.5634 43.9753 76.707C43.5367 76.9542 43.2416 76.9781 42.8509 76.7947C42.5319 76.6352 42.3246 76.372 42.3246 76.1089C42.3246 76.0052 42.5239 75.9893 43.5207 75.9893H44.7169V75.5905C44.7169 74.809 44.3182 74.2349 43.6483 74.0355C43.2018 73.8999 43.0503 73.8999 42.6117 74.0116ZM43.5128 74.6655C43.7281 74.7771 43.9195 75.0881 43.9195 75.3114C43.9195 75.4071 43.768 75.431 43.122 75.431C42.3644 75.431 42.3246 75.4231 42.3246 75.2636C42.3246 75.1679 42.4442 74.9765 42.5957 74.825C42.8908 74.5299 43.1539 74.4821 43.5128 74.6655Z" fill="black"/>
<path d="M35.1874 74.0913C35.1635 74.1551 35.1555 74.9366 35.1635 75.8298L35.1874 77.4645H35.5463H35.9051V75.75V74.0355L35.5622 74.0116C35.339 73.9956 35.2114 74.0196 35.1874 74.0913Z" fill="black"/>
</svg>
